<svg width="265" height="40" viewBox="0 0 265 40" fill="none" xmlns="http://www.w3.org/2000/svg">
<path d="M35.3369 25.1001H49.3335V30H26.9873V26.2207L40.3027 11.1914H27.2949V6.22559H48.7842V9.89502L35.3369 25.1001ZM66.0547 30.4395C64.2236 30.4395 62.561 30.1392 61.0669 29.5386C59.5728 28.938 58.291 28.1177 57.2217 27.0776C56.1523 26.0522 55.3247 24.8438 54.7388 23.4521C54.1675 22.0459 53.8818 20.5444 53.8818 18.9478V18.0688C53.8818 16.2524 54.1675 14.5972 54.7388 13.103C55.3101 11.5942 56.1084 10.2979 57.1338 9.21387C58.1592 8.12988 59.375 7.2876 60.7812 6.68701C62.1875 6.08643 63.7183 5.78613 65.3735 5.78613C67.0874 5.78613 68.6108 6.07178 69.9438 6.64307C71.2915 7.19971 72.4341 7.99072 73.3716 9.01611C74.2944 10.0415 74.9976 11.2793 75.481 12.7295C75.9644 14.165 76.2061 15.7544 76.2061 17.4976V20.0903H60.0781V20.1562C60.2832 21.1084 60.5469 21.8774 60.8691 22.4634C61.1914 23.0347 61.6235 23.5547 62.1655 24.0234C62.7222 24.5068 63.3594 24.8804 64.0771 25.144C64.7949 25.4077 65.5786 25.5396 66.4282 25.5396C67.6294 25.5396 68.7939 25.3125 69.9219 24.8584C71.0498 24.4043 71.9653 23.7231 72.6685 22.8149L75.7227 26.1108C74.9463 27.2095 73.7158 28.2056 72.0312 29.0991C70.3467 29.9927 68.3545 30.4395 66.0547 30.4395ZM65.3296 10.73C64.6411 10.73 64.0112 10.8545 63.4399 11.1035C62.8687 11.3379 62.3706 11.6821 61.9458 12.1362C61.5063 12.5903 61.1401 13.1323 60.8472 13.7622C60.5542 14.3921 60.3345 15.0952 60.188 15.8716H70.2075V15.3882C70.2075 14.7437 70.0903 14.1357 69.856 13.5645C69.6216 12.9932 69.2993 12.4951 68.8892 12.0703C68.479 11.6602 67.9736 11.3379 67.373 11.1035C66.7871 10.8545 66.106 10.73 65.3296 10.73ZM98.6182 5.78613C99.541 5.78613 100.391 5.85205 101.167 5.98389C101.958 6.10107 102.595 6.23291 103.079 6.37939L102.178 12.4658C101.372 12.2754 100.544 12.1362 99.6948 12.0483C98.8599 11.9458 98.0615 11.8945 97.2998 11.8945C96.5088 11.8945 95.791 11.9678 95.1465 12.1143C94.5166 12.2461 93.9526 12.4512 93.4546 12.7295C92.854 13.0518 92.3413 13.4619 91.9165 13.96C91.4917 14.458 91.1401 15.0439 90.8618 15.7178V30H84.7534V6.22559H90.4443L90.686 9.5874L90.73 10.1147C91.6968 8.76709 92.854 7.7124 94.2017 6.95068C95.5493 6.17432 97.0215 5.78613 98.6182 5.78613ZM107.737 17.8931C107.737 16.1646 107.986 14.5679 108.484 13.103C108.982 11.6235 109.714 10.3418 110.681 9.25781C111.633 8.17383 112.798 7.32422 114.175 6.70898C115.566 6.09375 117.156 5.78613 118.943 5.78613C120.73 5.78613 122.319 6.09375 123.711 6.70898C125.103 7.32422 126.282 8.17383 127.249 9.25781C128.201 10.3418 128.926 11.6235 129.424 13.103C129.922 14.5679 130.171 16.1646 130.171 17.8931V18.3545C130.171 20.0977 129.922 21.709 129.424 23.1885C128.926 24.6533 128.201 25.9277 127.249 27.0117C126.296 28.0957 125.125 28.9453 123.733 29.5605C122.341 30.1611 120.759 30.4614 118.987 30.4614C117.2 30.4614 115.603 30.1611 114.197 29.5605C112.805 28.9453 111.633 28.0957 110.681 27.0117C109.714 25.9277 108.982 24.6533 108.484 23.1885C107.986 21.709 107.737 20.0977 107.737 18.3545V17.8931ZM113.845 18.3545C113.845 19.3506 113.94 20.2881 114.131 21.167C114.321 22.0312 114.622 22.7856 115.032 23.4302C115.442 24.0894 115.969 24.6094 116.614 24.9902C117.273 25.3711 118.064 25.5615 118.987 25.5615C119.88 25.5615 120.649 25.3711 121.294 24.9902C121.938 24.6094 122.466 24.0894 122.876 23.4302C123.271 22.7856 123.564 22.0312 123.755 21.167C123.945 20.2881 124.041 19.3506 124.041 18.3545V17.8931C124.041 16.9263 123.945 16.0107 123.755 15.1465C123.564 14.2822 123.271 13.5205 122.876 12.8613C122.466 12.2021 121.938 11.6821 121.294 11.3013C120.649 10.9204 119.866 10.73 118.943 10.73C118.035 10.73 117.258 10.9204 116.614 11.3013C115.969 11.6821 115.442 12.2021 115.032 12.8613C114.622 13.5205 114.321 14.2822 114.131 15.1465C113.94 16.0107 113.845 16.9263 113.845 17.8931V18.3545ZM146.804 0.402832V6.22559H155.681V10.73H146.804V20.9473C146.804 21.8115 146.899 22.5366 147.09 23.1226C147.295 23.6938 147.581 24.1479 147.947 24.4849C148.313 24.8364 148.752 25.0854 149.265 25.2319C149.792 25.3784 150.378 25.4517 151.023 25.4517C151.492 25.4517 151.968 25.4297 152.451 25.3857C152.949 25.3418 153.425 25.2832 153.879 25.21C154.319 25.1514 154.729 25.0854 155.11 25.0122C155.505 24.939 155.842 24.8657 156.121 24.7925L156.714 28.9893C156.289 29.2383 155.791 29.458 155.22 29.6484C154.648 29.8242 154.041 29.9707 153.396 30.0879C152.751 30.2051 152.078 30.293 151.375 30.3516C150.686 30.4248 150.005 30.4614 149.331 30.4614C148.027 30.4614 146.841 30.293 145.771 29.9561C144.717 29.6045 143.816 29.0625 143.069 28.3301C142.307 27.6123 141.721 26.6968 141.311 25.5835C140.901 24.4556 140.696 23.1079 140.696 21.5405V10.73H135.269V6.22559H140.696V0.402832H146.804ZM166.382 39.6021C165.796 39.6021 165.283 39.5654 164.844 39.4922C164.419 39.4189 163.943 39.3091 163.416 39.1626L164.163 34.5044C164.412 34.5044 164.727 34.5117 165.107 34.5264C165.503 34.5557 165.818 34.5703 166.052 34.5703C166.536 34.5703 166.96 34.4165 167.327 34.1089C167.708 33.8159 168.03 33.4937 168.293 33.1421C168.557 32.7905 168.748 32.5269 168.865 32.3511C168.997 32.1753 169.15 31.9263 169.326 31.604L170.732 28.9893L160.669 6.22559H167.349L172.798 20.1562L173.457 22.5732L174.358 20.2002L179.785 6.22559H186.531L174.468 33.5596C174.204 34.1602 173.86 34.812 173.435 35.5151C173.025 36.2183 172.505 36.8701 171.875 37.4707C171.245 38.0713 170.476 38.5767 169.568 38.9868C168.674 39.397 167.612 39.6021 166.382 39.6021ZM189.739 39.1406V6.22559H195.386L195.605 8.55469C195.928 8.15918 196.279 7.80762 196.66 7.5C197.041 7.17773 197.451 6.89941 197.891 6.66504C198.418 6.38672 198.997 6.17432 199.626 6.02783C200.271 5.8667 200.959 5.78613 201.692 5.78613C203.201 5.78613 204.534 6.0791 205.691 6.66504C206.848 7.23633 207.822 8.04932 208.613 9.104C209.404 10.1733 209.998 11.4551 210.393 12.9492C210.803 14.4287 211.008 16.0693 211.008 17.8711V18.3325C211.008 20.061 210.803 21.665 210.393 23.1445C209.998 24.624 209.412 25.8984 208.635 26.9678C207.844 28.0518 206.87 28.9014 205.713 29.5166C204.556 30.1318 203.23 30.4395 201.736 30.4395C200.945 30.4395 200.212 30.3516 199.539 30.1758C198.879 30.0146 198.264 29.7729 197.693 29.4507C197.356 29.2456 197.034 29.0186 196.726 28.7695C196.418 28.5205 196.125 28.2422 195.847 27.9346V39.1406H189.739ZM204.9 17.8711C204.9 16.875 204.805 15.9448 204.614 15.0806C204.438 14.2017 204.16 13.4399 203.779 12.7954C203.384 12.1655 202.878 11.6675 202.263 11.3013C201.663 10.9351 200.93 10.752 200.066 10.752C199.568 10.752 199.114 10.8032 198.704 10.9058C198.293 10.9937 197.92 11.1255 197.583 11.3013C197.202 11.5063 196.865 11.7627 196.572 12.0703C196.294 12.3779 196.052 12.7368 195.847 13.147V23.0786C196.038 23.4595 196.265 23.8037 196.528 24.1113C196.807 24.4189 197.122 24.6826 197.473 24.9023C197.81 25.1074 198.198 25.2686 198.638 25.3857C199.077 25.4883 199.568 25.5396 200.11 25.5396C200.974 25.5396 201.707 25.3491 202.307 24.9683C202.922 24.5874 203.42 24.0674 203.801 23.4082C204.182 22.749 204.46 21.9873 204.636 21.123C204.812 20.2441 204.9 19.314 204.9 18.3325V17.8711ZM228.213 30.4395C226.382 30.4395 224.719 30.1392 223.225 29.5386C221.731 28.938 220.449 28.1177 219.38 27.0776C218.311 26.0522 217.483 24.8438 216.897 23.4521C216.326 22.0459 216.04 20.5444 216.04 18.9478V18.0688C216.04 16.2524 216.326 14.5972 216.897 13.103C217.468 11.5942 218.267 10.2979 219.292 9.21387C220.317 8.12988 221.533 7.2876 222.939 6.68701C224.346 6.08643 225.876 5.78613 227.532 5.78613C229.246 5.78613 230.769 6.07178 232.102 6.64307C233.45 7.19971 234.592 7.99072 235.53 9.01611C236.453 10.0415 237.156 11.2793 237.639 12.7295C238.123 14.165 238.364 15.7544 238.364 17.4976V20.0903H222.236V20.1562C222.441 21.1084 222.705 21.8774 223.027 22.4634C223.35 23.0347 223.782 23.5547 224.324 24.0234C224.88 24.5068 225.518 24.8804 226.235 25.144C226.953 25.4077 227.737 25.5396 228.586 25.5396C229.788 25.5396 230.952 25.3125 232.08 24.8584C233.208 24.4043 234.124 23.7231 234.827 22.8149L237.881 26.1108C237.104 27.2095 235.874 28.2056 234.189 29.0991C232.505 29.9927 230.513 30.4395 228.213 30.4395ZM227.488 10.73C226.799 10.73 226.169 10.8545 225.598 11.1035C225.027 11.3379 224.529 11.6821 224.104 12.1362C223.665 12.5903 223.298 13.1323 223.005 13.7622C222.712 14.3921 222.493 15.0952 222.346 15.8716H232.366V15.3882C232.366 14.7437 232.249 14.1357 232.014 13.5645C231.78 12.9932 231.458 12.4951 231.047 12.0703C230.637 11.6602 230.132 11.3379 229.531 11.1035C228.945 10.8545 228.264 10.73 227.488 10.73Z" fill="black"/>
</svg>
