<svg width="50" height="50" viewBox="0 0 50 50" fill="none" xmlns="http://www.w3.org/2000/svg">
<circle cx="25" cy="25" r="25" fill="white"/>
<path d="M38.4941 29.125C38.4941 31.5273 38.2207 33.7832 37.6738 35.8926C37.1465 38.002 36.3457 39.8477 35.2715 41.4297C34.1973 43.0117 32.8203 44.2715 31.1406 45.209C29.4609 46.127 27.459 46.5859 25.1348 46.5859C23.2402 46.5859 21.541 46.2832 20.0371 45.6777C18.5332 45.0527 17.2441 44.1543 16.1699 42.9824C14.5879 41.3418 13.4355 39.3105 12.7129 36.8887C12.0098 34.4668 11.6582 31.8789 11.6582 29.125V20.2188C11.6582 17.8359 11.9316 15.5703 12.4785 13.4219C13.0254 11.2734 13.8555 9.4082 14.9688 7.82617C16.0625 6.24414 17.4395 5.00391 19.0996 4.10547C20.7793 3.1875 22.7715 2.72852 25.0762 2.72852C26.9707 2.72852 28.6797 3.05078 30.2031 3.69531C31.7266 4.33984 33.0156 5.23828 34.0703 6.39062C35.5742 7.97266 36.6777 9.99414 37.3809 12.4551C38.1035 14.8965 38.4746 17.4844 38.4941 20.2188V29.125ZM15.4961 31.6738L34.4512 14.5938C34.1973 13.2656 33.8164 12.0645 33.3086 10.9902C32.8203 9.89648 32.1953 8.95898 31.4336 8.17773C30.6719 7.39648 29.7637 6.80078 28.709 6.39062C27.6543 5.96094 26.4434 5.74609 25.0762 5.74609C23.3184 5.74609 21.8438 6.07812 20.6523 6.74219C19.4805 7.40625 18.4746 8.34375 17.6348 9.55469C16.7754 10.7461 16.1406 12.2402 15.7305 14.0371C15.3398 15.834 15.1445 17.6992 15.1445 19.6328V27.1035C15.1445 27.8457 15.1738 28.6074 15.2324 29.3887C15.291 30.1504 15.3789 30.9121 15.4961 31.6738ZM35.0078 29.6816V22.7676C34.9883 22.1426 34.959 21.3809 34.9199 20.4824C34.8809 19.584 34.8125 18.7637 34.7148 18.0215L15.7891 35.0723C16.0625 36.3613 16.4531 37.543 16.9609 38.6172C17.4883 39.6719 18.1426 40.5703 18.9238 41.3125C19.6855 42.0352 20.5742 42.6016 21.5898 43.0117C22.625 43.4023 23.8066 43.5977 25.1348 43.5977C26.8535 43.5977 28.3184 43.2461 29.5293 42.543C30.7598 41.8398 31.7461 40.9023 32.4883 39.7305C33.3867 38.4609 34.0215 36.957 34.3926 35.2188C34.7832 33.4805 34.9883 31.6348 35.0078 29.6816Z" fill="black"/>
</svg>
